<svg width="308" height="34" viewBox="0 0 308 34" fill="none" xmlns="http://www.w3.org/2000/svg">
<path d="M0 32.8928V29.7798H4.3025V5.3146H0V2.22693H12.2832V5.29773H7.98071V29.7629H12.2832V32.8928H0Z" fill="black"/>
<path d="M18.9985 2.22687H31.5854C32.6771 2.16481 33.7702 2.32331 34.7992 2.69292C35.8283 3.06253 36.7724 3.63566 37.5752 4.37811C38.3081 5.13633 38.8785 6.03624 39.2513 7.02269C39.6241 8.00914 39.7915 9.06133 39.7433 10.1148C39.7703 11.1012 39.607 12.0837 39.2624 13.0084C38.9821 13.7342 38.5639 14.3989 38.0308 14.9656C37.5739 15.4515 37.0228 15.839 36.411 16.1045C35.8915 16.3327 35.3482 16.5025 34.7912 16.6107V16.8638C35.431 16.9167 36.0594 17.0646 36.6556 17.3025C37.3783 17.5918 38.0396 18.0154 38.6044 18.551C39.2577 19.1778 39.7871 19.9219 40.1651 20.7445C40.6118 21.7587 40.8279 22.8593 40.7978 23.9671C40.8098 25.1626 40.6098 26.3508 40.2073 27.4766C39.8435 28.5095 39.285 29.4632 38.5622 30.2859C37.8579 31.0771 36.9958 31.7122 36.0314 32.1503C35.0564 32.6278 33.9871 32.8814 32.9015 32.8927H18.9985V2.22687ZM22.6767 15.4802H31.113C32.3682 15.5639 33.6089 15.1724 34.5888 14.3835C35.0106 13.977 35.3387 13.4833 35.55 12.9369C35.7613 12.3905 35.8507 11.8045 35.812 11.2199V9.72671C35.8494 9.14352 35.7594 8.55917 35.5482 8.01429C35.3369 7.46942 35.0095 6.97709 34.5888 6.57154C33.624 5.79113 32.4022 5.39991 31.1636 5.47483H22.7274L22.6767 15.4802ZM22.6767 29.6026H31.7626C33.1122 29.6775 34.4415 29.2475 35.4914 28.3962C35.9617 27.9415 36.327 27.3896 36.5616 26.779C36.7962 26.1684 36.8945 25.5139 36.8497 24.8614V23.3766C36.8945 22.724 36.7962 22.0695 36.5616 21.4589C36.327 20.8483 35.9617 20.2964 35.4914 19.8418C34.4415 18.9905 33.1122 18.5604 31.7626 18.6354H22.6767V29.6026Z" fill="black"/>
<path d="M71.5057 7.05247H71.2864L68.6964 12.1902L61.3738 25.5195L54.0426 12.1902L51.4612 7.05247H51.2418V32.8928H47.6395V2.22693H52.5579L61.3316 18.7198H61.5847L70.3668 2.22693H75.0827V32.8928H71.5057V7.05247Z" fill="black"/>
<path d="M102.83 33.3737C100.473 33.4472 98.1309 32.9737 95.9878 31.9901C94.1787 31.1156 92.5548 29.9012 91.2045 28.4131L95.5913 23.9757C96.5359 25.0848 97.7138 25.9715 99.041 26.5724C100.368 27.1732 101.812 27.4734 103.268 27.4514C104.559 27.5553 105.846 27.203 106.904 26.4559C107.293 26.1335 107.602 25.7263 107.808 25.2655C108.014 24.8048 108.112 24.3029 108.094 23.7985C108.117 23.0348 107.869 22.2875 107.394 21.6894C106.604 20.99 105.596 20.5847 104.542 20.5421L101.514 20.154C98.2684 19.7435 95.8922 18.762 94.3849 17.2098C93.6149 16.3801 93.0183 15.405 92.6301 14.3417C92.2418 13.2783 92.0698 12.1482 92.124 11.0176C92.1058 9.71461 92.3766 8.42383 92.917 7.2381C93.4351 6.09868 94.2053 5.09191 95.1695 4.29385C96.2352 3.42872 97.4586 2.77838 98.7718 2.37881C100.342 1.90755 101.975 1.67993 103.614 1.70391C105.7 1.66082 107.773 2.03365 109.714 2.80063C111.442 3.51642 112.988 4.61208 114.235 6.00641L109.806 10.4945C109.057 9.64266 108.152 8.94122 107.141 8.42762C105.912 7.85351 104.565 7.57886 103.209 7.62617C102.046 7.54627 100.885 7.81659 99.8769 8.40231C99.5257 8.64347 99.2411 8.96939 99.0493 9.34988C98.8576 9.73036 98.7651 10.1531 98.7802 10.5789C98.7385 10.9939 98.7929 11.4129 98.9392 11.8036C99.0855 12.1942 99.3197 12.5459 99.6239 12.8313C100.452 13.3969 101.41 13.7423 102.408 13.8353L105.453 14.333C108.608 14.8307 110.945 15.8093 112.472 17.252C113.999 18.6946 114.75 20.7614 114.75 23.4273C114.765 24.8108 114.499 26.183 113.966 27.4598C113.446 28.6746 112.659 29.7561 111.662 30.6234C110.562 31.5513 109.285 32.2459 107.908 32.665C106.263 33.1674 104.549 33.4066 102.83 33.3737Z" fill="black"/>
<path d="M119.938 0.387817H126.426V19.555H126.687L129.539 15.3369L134.154 9.85331H141.341L133.664 18.6692L142.219 32.8927H134.499L129.32 23.1067L126.426 26.3546V32.8927H119.938V0.387817Z" fill="black"/>
<path d="M148.478 7.36466C147.438 7.45617 146.403 7.13159 145.602 6.46198C145.303 6.15944 145.07 5.79903 144.916 5.40294C144.762 5.00685 144.691 4.58347 144.707 4.15888V3.19714C144.691 2.77255 144.762 2.34917 144.916 1.95308C145.07 1.55699 145.303 1.19658 145.602 0.894041C146.446 0.311788 147.448 0 148.474 0C149.5 0 150.502 0.311788 151.347 0.894041C151.646 1.19616 151.881 1.55631 152.036 1.95236C152.191 2.3484 152.264 2.772 152.249 3.19714V4.15888C152.264 4.58402 152.191 5.00761 152.036 5.40366C151.881 5.79971 151.646 6.15985 151.347 6.46198C150.951 6.79369 150.495 7.04417 150.002 7.19906C149.51 7.35396 148.992 7.41023 148.478 7.36466ZM145.23 9.81961H151.726V32.8928H145.23V9.81961Z" fill="black"/>
<path d="M164.246 32.8927C161.996 32.8927 160.365 32.35 159.353 31.2646C158.788 30.6196 158.357 29.8695 158.083 29.0573C157.809 28.2451 157.699 27.3868 157.758 26.5318V0.387817H164.254V27.831H167.148V32.8927H164.246Z" fill="black"/>
<path d="M177.162 32.8927C174.912 32.8927 173.281 32.35 172.269 31.2646C171.151 29.9674 170.591 28.282 170.708 26.574V0.387817H177.204V27.831H180.097V32.8927H177.162Z" fill="black"/>
<path d="M191.832 33.3737C189.906 33.4334 187.991 33.0676 186.222 32.3022C184.673 31.5632 183.286 30.5254 182.139 29.2483L185.961 25.3929C186.735 26.2618 187.654 26.9897 188.677 27.5442C189.72 28.0789 190.879 28.3484 192.052 28.3288C192.986 28.4189 193.924 28.2122 194.734 27.7382C194.977 27.5493 195.17 27.3054 195.3 27.0266C195.429 26.7478 195.489 26.4423 195.477 26.1353C195.477 25.0555 194.701 24.4481 193.148 24.2034L190.617 23.8997C185.438 23.2586 182.851 20.8908 182.856 16.7964C182.843 15.7446 183.059 14.7025 183.489 13.7425C183.904 12.8285 184.518 12.0186 185.286 11.3719C186.126 10.6829 187.092 10.1617 188.129 9.83647C189.326 9.45681 190.576 9.27167 191.832 9.28812C192.898 9.27886 193.962 9.36071 195.013 9.53277C195.858 9.6711 196.685 9.90604 197.476 10.233C198.176 10.5351 198.838 10.9173 199.45 11.3719C200.069 11.8443 200.66 12.3513 201.222 12.8904L197.493 16.7036C196.772 15.9991 195.933 15.4278 195.013 15.0163C194.128 14.6005 193.164 14.3817 192.187 14.3752C191.361 14.3044 190.533 14.49 189.816 14.9067C189.595 15.0661 189.416 15.2768 189.294 15.5207C189.172 15.7646 189.111 16.0345 189.116 16.3071C189.099 16.5666 189.136 16.8268 189.223 17.0718C189.31 17.3169 189.446 17.5417 189.622 17.7328C190.171 18.1595 190.835 18.4121 191.529 18.4583L194.119 18.8127C199.18 19.4763 201.711 21.785 201.711 25.7388C201.723 26.8033 201.483 27.8556 201.011 28.8096C200.527 29.7441 199.844 30.5618 199.012 31.2055C198.078 31.9261 197.02 32.4694 195.89 32.8084C194.574 33.2022 193.206 33.3928 191.832 33.3737Z" fill="black"/>
<path d="M206.486 2.22702H221.359C222.445 2.16241 223.532 2.31985 224.555 2.68974C225.577 3.05962 226.514 3.63417 227.307 4.37827C228.038 5.13748 228.606 6.03776 228.978 7.0241C229.349 8.01044 229.515 9.06214 229.466 10.1149C229.493 11.1302 229.336 12.1419 229.002 13.1014C228.733 13.838 228.317 14.5124 227.779 15.0839C227.273 15.6027 226.655 16.0006 225.974 16.2481C225.263 16.5002 224.517 16.6397 223.764 16.6615V16.923C224.547 16.9341 225.324 17.0679 226.067 17.3195C226.865 17.5866 227.603 18.0048 228.243 18.5512C228.95 19.1686 229.524 19.9235 229.93 20.7699C230.415 21.8269 230.646 22.9824 230.605 24.1444C230.611 25.2955 230.411 26.4382 230.015 27.5189C229.634 28.5456 229.062 29.4904 228.328 30.3029C227.622 31.0927 226.76 31.7275 225.797 32.1673C224.835 32.6299 223.784 32.8775 222.717 32.8928H206.486V2.22702ZM213.159 14.7718H219.782C220.157 14.794 220.533 14.7396 220.887 14.612C221.241 14.4844 221.565 14.2861 221.84 14.0294C222.098 13.7552 222.298 13.4312 222.427 13.0774C222.556 12.7235 222.612 12.347 222.591 11.9709V10.6549C222.612 10.2775 222.556 9.89985 222.427 9.54464C222.298 9.18943 222.098 8.86401 221.84 8.58797C221.565 8.33119 221.241 8.13297 220.887 8.00535C220.533 7.87773 220.157 7.82337 219.782 7.84558H213.159V14.7718ZM213.159 27.2321H220.836C221.599 27.275 222.348 27.0142 222.92 26.5066C223.183 26.2403 223.387 25.9218 223.52 25.5715C223.652 25.2213 223.709 24.8472 223.688 24.4735V22.9802C223.709 22.6052 223.652 22.2298 223.52 21.8782C223.388 21.5266 223.183 21.2065 222.92 20.9387C222.347 20.4343 221.599 20.1739 220.836 20.2131H213.159V27.2321Z" fill="black"/>
<path d="M248.996 28.9868H248.777C248.565 29.5811 248.282 30.1477 247.933 30.674C247.593 31.2011 247.165 31.6662 246.668 32.0491C246.108 32.4796 245.477 32.808 244.804 33.0193C244.002 33.2605 243.169 33.3771 242.332 33.3652C241.314 33.434 240.294 33.2569 239.358 32.8487C238.423 32.4405 237.6 31.8132 236.958 31.0199C235.743 29.4592 235.136 27.2067 235.136 24.2709V9.81958H241.623V23.7225C241.553 24.8605 241.814 25.9944 242.374 26.9874C242.66 27.3807 243.045 27.6926 243.488 27.8923C243.932 28.0921 244.42 28.1727 244.905 28.1263C245.411 28.1282 245.914 28.0543 246.398 27.9069C246.871 27.7756 247.316 27.5614 247.714 27.2742C248.091 27.001 248.404 26.65 248.634 26.245C248.878 25.8011 249 25.3004 248.988 24.794V9.81958H255.484V32.8928H248.988L248.996 28.9868Z" fill="black"/>
<path d="M264.789 7.36466C263.749 7.45617 262.714 7.13159 261.912 6.46198C261.614 6.15944 261.381 5.79903 261.227 5.40294C261.073 5.00685 261.002 4.58347 261.018 4.15888V3.19714C261.002 2.77255 261.073 2.34917 261.227 1.95308C261.381 1.55699 261.614 1.19658 261.912 0.894041C262.757 0.311788 263.759 0 264.785 0C265.811 0 266.813 0.311788 267.657 0.894041C267.959 1.19497 268.194 1.5549 268.349 1.95124C268.505 2.34758 268.577 2.77176 268.56 3.19714V4.15888C268.577 4.58425 268.505 5.00843 268.349 5.40477C268.194 5.80111 267.959 6.16105 267.657 6.46198C267.262 6.79369 266.805 7.04417 266.313 7.19906C265.821 7.35396 265.303 7.41023 264.789 7.36466ZM261.524 9.81961H268.02V32.8928H261.524V9.81961Z" fill="black"/>
<path d="M280.54 32.8927C278.29 32.8927 276.659 32.35 275.647 31.2646C274.529 29.9674 273.969 28.282 274.086 26.574V0.387817H280.582V27.831H283.459V32.8927H280.54Z" fill="black"/>
<path d="M301.504 28.9868H301.284C301.102 29.6092 300.817 30.1966 300.441 30.7246C300.062 31.2636 299.598 31.7367 299.066 32.125C298.503 32.5292 297.88 32.8397 297.218 33.0446C296.531 33.2646 295.814 33.3756 295.092 33.3736C292.165 33.3736 289.963 32.3444 288.47 30.2859C286.977 28.2275 286.234 25.2242 286.234 21.3098C286.234 17.3953 286.977 14.4089 288.47 12.3589C289.963 10.3089 292.173 9.27121 295.101 9.27121C296.522 9.25315 297.912 9.68419 299.074 10.5029C300.175 11.2459 300.962 12.3697 301.284 13.6581H301.504V0.387817H308V32.8927H301.504V28.9868ZM297.286 28.1431C298.375 28.1768 299.445 27.8507 300.331 27.2151C300.722 26.9337 301.036 26.5598 301.247 26.127C301.457 25.6941 301.557 25.2158 301.538 24.7349V17.9353C301.557 17.4543 301.457 16.976 301.247 16.5431C301.036 16.1103 300.722 15.7364 300.331 15.455C299.442 14.8284 298.372 14.5113 297.286 14.5523C296.713 14.5387 296.145 14.6476 295.618 14.8716C295.091 15.0957 294.619 15.4298 294.232 15.8515C293.393 16.8125 292.96 18.0618 293.025 19.3357V23.326C292.959 24.6027 293.392 25.855 294.232 26.8186C294.615 27.2349 295.083 27.5652 295.603 27.7877C296.124 28.0101 296.686 28.1198 297.252 28.1094L297.286 28.1431Z" fill="black"/>
</svg>
