<svg width="507" height="162" viewBox="0 0 507 162" fill="none" xmlns="http://www.w3.org/2000/svg">
<path d="M378.556 75.3594V62.4305H380.071L385.87 72.1996H385.058L390.783 62.4305H392.298L392.318 75.3594H390.545L390.525 65.2181H390.951L385.853 73.788H385.004L379.869 65.2181H380.329V75.3594H378.556ZM400.39 75.4702C399.342 75.4702 398.418 75.2542 397.62 74.8223C396.83 74.3932 396.216 73.8022 395.773 73.0492C395.341 72.299 395.125 71.4381 395.125 70.4635C395.125 69.4917 395.335 68.6307 395.753 67.8777C396.185 67.1275 396.77 66.5422 397.509 66.1245C398.259 65.6926 399.103 65.4766 400.038 65.4766C400.987 65.4766 401.823 65.6869 402.55 66.1046C403.277 66.5251 403.843 67.1161 404.249 67.8777C404.667 68.6307 404.877 69.5087 404.877 70.5203C404.877 70.5942 404.871 70.6794 404.86 70.7788C404.86 70.8755 404.852 70.9692 404.84 71.0545H396.512V69.7815H403.917L403.198 70.2248C403.209 69.5968 403.078 69.037 402.809 68.5426C402.539 68.051 402.163 67.6703 401.683 67.3975C401.214 67.1162 400.666 66.9741 400.038 66.9741C399.421 66.9741 398.876 67.1162 398.396 67.3975C397.915 67.6703 397.538 68.0567 397.268 68.5625C396.998 69.0541 396.861 69.6196 396.861 70.2617V70.5572C396.861 71.2079 397.009 71.7933 397.305 72.3105C397.611 72.8162 398.038 73.2112 398.58 73.4925C399.12 73.7766 399.743 73.9187 400.444 73.9187C401.024 73.9187 401.547 73.8193 402.016 73.6232C402.496 73.4243 402.914 73.1288 403.272 72.7367L404.249 73.8818C403.806 74.399 403.252 74.7911 402.587 75.0639C401.933 75.3338 401.203 75.4702 400.39 75.4702ZM419.679 65.4766C420.466 65.4766 421.162 65.63 421.764 65.9397C422.367 66.2466 422.835 66.7155 423.168 67.3435C423.512 67.9715 423.685 68.7642 423.685 69.7246V75.3594H421.912V69.9292C421.912 68.9802 421.69 68.2669 421.247 67.7867C420.804 67.3065 420.182 67.065 419.383 67.065C418.792 67.065 418.275 67.19 417.832 67.4344C417.388 67.6816 417.042 68.0453 416.797 68.5255C416.561 69.0058 416.445 69.6025 416.445 70.3157V75.3594H414.672V69.9292C414.672 68.9802 414.45 68.2669 414.007 67.7867C413.575 67.3065 412.956 67.065 412.143 67.065C411.563 67.065 411.052 67.19 410.608 67.4344C410.165 67.6816 409.821 68.0453 409.574 68.5255C409.327 69.0058 409.205 69.6025 409.205 70.3157V75.3594H407.432V65.5704H409.131V68.1732L408.855 67.5083C409.162 66.8689 409.637 66.3688 410.276 66.0136C410.915 65.6556 411.663 65.4766 412.512 65.4766C413.447 65.4766 414.254 65.7124 414.93 66.1784C415.607 66.6359 416.05 67.3293 416.26 68.267L415.541 67.9715C415.837 67.2185 416.354 66.616 417.093 66.1614C417.832 65.7039 418.693 65.4766 419.679 65.4766ZM432.23 75.4702C431.394 75.4702 430.635 75.2855 429.959 74.9161C429.294 74.5325 428.763 73.9727 428.371 73.2339C427.987 72.4952 427.797 71.5717 427.797 70.4635C427.797 69.3553 427.996 68.4318 428.388 67.693C428.794 66.9542 429.331 66.4001 429.996 66.0307C430.672 65.6613 431.417 65.4766 432.23 65.4766C433.19 65.4766 434.04 65.6869 434.778 66.1046C435.517 66.5251 436.103 67.1076 436.534 67.8606C436.963 68.5994 437.179 69.4661 437.179 70.4635C437.179 71.4608 436.963 72.336 436.534 73.0862C436.103 73.8392 435.517 74.4217 434.778 74.8422C434.04 75.2599 433.19 75.4702 432.23 75.4702ZM427.041 75.3594V61.6548H428.814V68.1732L428.629 70.4464L428.74 72.7168V75.3594H427.041ZM432.082 73.9187C432.71 73.9187 433.27 73.7766 433.764 73.4925C434.267 73.2112 434.662 72.8105 434.946 72.2934C435.242 71.762 435.389 71.154 435.389 70.4635C435.389 69.7616 435.242 69.1592 434.946 68.6534C434.662 68.1362 434.267 67.7356 433.764 67.4543C433.27 67.1701 432.71 67.0281 432.082 67.0281C431.468 67.0281 430.905 67.1701 430.402 67.4543C429.908 67.7356 429.516 68.1362 429.22 68.6534C428.936 69.1592 428.794 69.7616 428.794 70.4635C428.794 71.154 428.936 71.762 429.22 72.2934C429.516 72.8105 429.908 73.2112 430.402 73.4925C430.905 73.7766 431.468 73.9187 432.082 73.9187ZM439.723 75.3594V65.5704H441.422V68.23L441.254 67.5651C441.527 66.886 441.982 66.3688 442.621 66.0136C443.263 65.6556 444.05 65.4766 444.985 65.4766V67.1957C444.911 67.1815 444.837 67.1758 444.763 67.1758C444.704 67.1758 444.641 67.1758 444.579 67.1758C443.633 67.1758 442.88 67.46 442.325 68.0254C441.771 68.5937 441.496 69.4121 441.496 70.4834V75.3594H439.723ZM451.367 75.4702C450.381 75.4702 449.506 75.2542 448.744 74.8223C447.98 74.3932 447.378 73.8022 446.934 73.0492C446.491 72.2877 446.269 71.4239 446.269 70.4635C446.269 69.4917 446.491 68.6307 446.934 67.8777C447.378 67.1275 447.98 66.5422 448.744 66.1245C449.506 65.6926 450.381 65.4766 451.367 65.4766C452.339 65.4766 453.208 65.6926 453.97 66.1245C454.746 66.5422 455.351 67.1275 455.78 67.8777C456.223 68.6165 456.445 69.4803 456.445 70.4635C456.445 71.4381 456.223 72.299 455.78 73.0492C455.351 73.8022 454.746 74.3932 453.97 74.8223C453.208 75.2542 452.339 75.4702 451.367 75.4702ZM451.367 73.9187C451.995 73.9187 452.555 73.7766 453.046 73.4925C453.552 73.2112 453.947 72.8105 454.229 72.2934C454.513 71.762 454.655 71.154 454.655 70.4635C454.655 69.7616 454.513 69.1592 454.229 68.6534C453.947 68.1362 453.552 67.7356 453.046 67.4543C452.555 67.1701 451.995 67.0281 451.367 67.0281C450.739 67.0281 450.179 67.1701 449.685 67.4543C449.193 67.7356 448.798 68.1362 448.503 68.6534C448.207 69.1592 448.06 69.7616 448.06 70.4635C448.06 71.154 448.207 71.762 448.503 72.2934C448.798 72.8105 449.193 73.2112 449.685 73.4925C450.179 73.7766 450.739 73.9187 451.367 73.9187ZM468.087 75.4702C467.14 75.4702 466.291 75.2599 465.538 74.8422C464.799 74.4217 464.214 73.8392 463.785 73.0862C463.353 72.336 463.137 71.4608 463.137 70.4635C463.137 69.4661 463.353 68.5994 463.785 67.8606C464.214 67.1076 464.799 66.5251 465.538 66.1046C466.291 65.6869 467.14 65.4766 468.087 65.4766C468.913 65.4766 469.658 65.6613 470.323 66.0307C470.988 66.4001 471.516 66.9542 471.911 67.693C472.318 68.4318 472.519 69.3553 472.519 70.4635C472.519 71.5717 472.323 72.4952 471.928 73.2339C471.548 73.9727 471.025 74.5325 470.36 74.9161C469.695 75.2855 468.936 75.4702 468.087 75.4702ZM468.234 73.9187C468.851 73.9187 469.405 73.7766 469.897 73.4925C470.402 73.2112 470.797 72.8105 471.079 72.2934C471.374 71.762 471.522 71.154 471.522 70.4635C471.522 69.7616 471.374 69.1592 471.079 68.6534C470.797 68.1362 470.402 67.7356 469.897 67.4543C469.405 67.1701 468.851 67.0281 468.234 67.0281C467.606 67.0281 467.047 67.1701 466.555 67.4543C466.061 67.7356 465.668 68.1362 465.373 68.6534C465.077 69.1592 464.93 69.7616 464.93 70.4635C464.93 71.154 465.077 71.762 465.373 72.2934C465.668 72.8105 466.061 73.2112 466.555 73.4925C467.047 73.7766 467.606 73.9187 468.234 73.9187ZM471.579 75.3594V72.7168L471.69 70.4464L471.505 68.1732V61.6548H473.278V75.3594H471.579ZM482.8 75.3594V73.2908L482.709 72.9014V69.3751C482.709 68.6221 482.487 68.0454 482.044 67.639C481.612 67.2185 480.961 67.011 480.086 67.011C479.507 67.011 478.941 67.1076 478.387 67.3065C477.833 67.4912 477.364 67.7442 476.983 68.0624L476.245 66.7325C476.75 66.3262 477.353 66.0193 478.055 65.809C478.768 65.5874 479.512 65.4766 480.288 65.4766C481.632 65.4766 482.666 65.8034 483.391 66.4569C484.118 67.1076 484.482 68.105 484.482 69.449V75.3594H482.8ZM479.586 75.4702C478.862 75.4702 478.219 75.3452 477.665 75.1008C477.125 74.8536 476.705 74.5155 476.409 74.0836C476.114 73.6403 475.966 73.143 475.966 72.5889C475.966 72.0576 476.091 71.5773 476.335 71.1482C476.594 70.7163 477.009 70.3725 477.574 70.114C478.154 69.8554 478.93 69.7246 479.902 69.7246H483.005V71.0005H479.975C479.089 71.0005 478.492 71.1483 478.182 71.4438C477.876 71.7393 477.722 72.0945 477.722 72.515C477.722 72.9952 477.913 73.3817 478.293 73.6772C478.677 73.9614 479.205 74.1035 479.882 74.1035C480.547 74.1035 481.126 73.9557 481.618 73.6602C482.124 73.3647 482.487 72.9327 482.709 72.3673L483.058 73.5863C482.825 74.1631 482.413 74.6262 481.822 74.9701C481.231 75.3025 480.487 75.4702 479.586 75.4702ZM380.218 98.5234C379.454 98.5234 378.741 98.3614 378.076 98.0432C377.411 97.7221 376.868 97.2617 376.451 96.6565L377.522 95.4006C377.88 95.895 378.281 96.2758 378.724 96.5457C379.179 96.8043 379.676 96.935 380.218 96.935C381.696 96.935 382.435 96.0598 382.435 94.3123V87.0522H377.763V85.4468H384.265V94.2185C384.265 95.6591 383.918 96.7361 383.231 97.4521C382.551 98.1654 381.548 98.5234 380.218 98.5234ZM385.89 98.3756L391.744 85.4468H393.574L399.447 98.3756H397.506L392.281 86.481H393.02L387.791 98.3756H385.89ZM388.382 95.142L388.882 93.6644H396.159L396.694 95.142H388.382ZM409.495 98.3756L405.173 85.4468H407.074L411.046 97.3783H410.086L414.203 85.4468H415.902L419.929 97.3783H419.005L423.032 85.4468H424.788L420.466 98.3756H418.525L414.757 87.3108H415.257L411.469 98.3756H409.495ZM430.334 98.4864C429.348 98.4864 428.473 98.2705 427.712 97.8385C426.947 97.4095 426.345 96.8184 425.901 96.0654C425.458 95.3039 425.237 94.4401 425.237 93.4797C425.237 92.5079 425.458 91.6469 425.901 90.8939C426.345 90.1438 426.947 89.5584 427.712 89.1407C428.473 88.7088 429.348 88.4928 430.334 88.4928C431.306 88.4928 432.173 88.7088 432.937 89.1407C433.713 89.5584 434.315 90.1438 434.747 90.8939C435.19 91.6327 435.412 92.4965 435.412 93.4797C435.412 94.4543 435.19 95.3153 434.747 96.0654C434.315 96.8184 433.713 97.4095 432.937 97.8385C432.173 98.2705 431.306 98.4864 430.334 98.4864ZM430.334 96.935C430.962 96.935 431.522 96.7929 432.014 96.5087C432.519 96.2274 432.911 95.8268 433.196 95.3096C433.48 94.7783 433.622 94.1702 433.622 93.4797C433.622 92.7779 433.48 92.1754 433.196 91.6696C432.911 91.1525 432.519 90.7518 432.014 90.4705C431.522 90.1864 430.962 90.0443 430.334 90.0443C429.706 90.0443 429.144 90.1864 428.652 90.4705C428.16 90.7518 427.766 91.1525 427.47 91.6696C427.174 92.1754 427.027 92.7779 427.027 93.4797C427.027 94.1702 427.174 94.7783 427.47 95.3096C427.766 95.8268 428.16 96.2274 428.652 96.5087C429.144 96.7929 429.706 96.935 430.334 96.935ZM437.958 98.3756V88.5866H439.657V91.2463L439.49 90.5814C439.76 89.9023 440.217 89.385 440.856 89.0299C441.496 88.6718 442.286 88.4928 443.221 88.4928V90.212C443.147 90.1978 443.073 90.1921 442.999 90.1921C442.936 90.1921 442.877 90.1921 442.814 90.1921C441.865 90.1921 441.115 90.4762 440.561 91.0417C440.007 91.61 439.731 92.4284 439.731 93.4996V98.3756H437.958ZM445.499 98.3756V84.671H447.273V98.3756H445.499ZM454.794 98.4864C453.845 98.4864 452.995 98.2762 452.245 97.8585C451.506 97.4379 450.921 96.8554 450.492 96.1024C450.06 95.3523 449.844 94.4771 449.844 93.4797C449.844 92.4823 450.06 91.6156 450.492 90.8768C450.921 90.1238 451.506 89.5414 452.245 89.1208C452.995 88.7031 453.845 88.4928 454.794 88.4928C455.618 88.4928 456.365 88.6775 457.03 89.0469C457.695 89.4163 458.224 89.9704 458.619 90.7092C459.025 91.448 459.227 92.3715 459.227 93.4797C459.227 94.5879 459.031 95.5114 458.636 96.2502C458.255 96.989 457.732 97.5487 457.067 97.9323C456.402 98.3017 455.644 98.4864 454.794 98.4864ZM454.942 96.935C455.558 96.935 456.112 96.7929 456.604 96.5087C457.11 96.2274 457.502 95.8268 457.786 95.3096C458.082 94.7783 458.229 94.1702 458.229 93.4797C458.229 92.7779 458.082 92.1754 457.786 91.6696C457.502 91.1525 457.11 90.7518 456.604 90.4705C456.112 90.1864 455.558 90.0443 454.942 90.0443C454.314 90.0443 453.754 90.1864 453.262 90.4705C452.768 90.7518 452.376 91.1525 452.08 91.6696C451.785 92.1754 451.637 92.7779 451.637 93.4797C451.637 94.1702 451.785 94.7783 452.08 95.3096C452.376 95.8268 452.768 96.2274 453.262 96.5087C453.754 96.7929 454.314 96.935 454.942 96.935ZM458.286 98.3756V95.733L458.397 93.4626L458.212 91.1894V84.671H459.985V98.3756H458.286ZM465.501 98.3756L461.861 88.5866H463.543L466.774 97.4521H465.981L469.343 88.5866H470.837L474.125 97.4521H473.349L476.657 88.5866H478.245L474.588 98.3756H472.889L469.803 90.2859H470.32L467.2 98.3756H465.501ZM480.135 98.3756V88.5866H481.908V98.3756H480.135ZM481.021 86.7027C480.677 86.7027 480.387 86.5919 480.154 86.3702C479.933 86.1486 479.822 85.8758 479.822 85.5575C479.822 85.2251 479.933 84.9466 480.154 84.725C480.387 84.5034 480.677 84.3926 481.021 84.3926C481.368 84.3926 481.649 84.5034 481.871 84.725C482.107 84.9353 482.223 85.1995 482.223 85.5206C482.223 85.8531 482.112 86.1344 481.891 86.3702C481.669 86.5919 481.379 86.7027 481.021 86.7027ZM489.432 98.4864C488.483 98.4864 487.633 98.2762 486.883 97.8585C486.144 97.4379 485.559 96.8554 485.127 96.1024C484.698 95.3523 484.482 94.4771 484.482 93.4797C484.482 92.4823 484.698 91.6156 485.127 90.8768C485.559 90.1238 486.144 89.5414 486.883 89.1208C487.633 88.7031 488.483 88.4928 489.432 88.4928C490.256 88.4928 491.001 88.6775 491.665 89.0469C492.33 89.4163 492.862 89.9704 493.254 90.7092C493.66 91.448 493.865 92.3715 493.865 93.4797C493.865 94.5879 493.669 95.5114 493.274 96.2502C492.893 96.989 492.367 97.5487 491.702 97.9323C491.037 98.3017 490.282 98.4864 489.432 98.4864ZM489.58 96.935C490.196 96.935 490.75 96.7929 491.242 96.5087C491.748 96.2274 492.14 95.8268 492.424 95.3096C492.72 94.7783 492.867 94.1702 492.867 93.4797C492.867 92.7779 492.72 92.1754 492.424 91.6696C492.14 91.1525 491.748 90.7518 491.242 90.4705C490.75 90.1864 490.196 90.0443 489.58 90.0443C488.952 90.0443 488.392 90.1864 487.898 90.4705C487.406 90.7518 487.011 91.1525 486.716 91.6696C486.42 92.1754 486.272 92.7779 486.272 93.4797C486.272 94.1702 486.42 94.7783 486.716 95.3096C487.011 95.8268 487.406 96.2274 487.898 96.5087C488.392 96.7929 488.952 96.935 489.58 96.935ZM492.921 98.3756V95.733L493.032 93.4626L492.848 91.1894V84.671H494.621V98.3756H492.921ZM502.429 98.4864C501.381 98.4864 500.457 98.2705 499.659 97.8385C498.869 97.4095 498.255 96.8184 497.812 96.0654C497.38 95.3153 497.164 94.4543 497.164 93.4797C497.164 92.5079 497.374 91.6469 497.792 90.8939C498.224 90.1438 498.809 89.5584 499.548 89.1407C500.298 88.7088 501.142 88.4928 502.077 88.4928C503.026 88.4928 503.861 88.7031 504.589 89.1208C505.316 89.5414 505.882 90.1324 506.288 90.8939C506.706 91.6469 506.916 92.525 506.916 93.5365C506.916 93.6104 506.91 93.6956 506.899 93.7951C506.899 93.8917 506.89 93.9855 506.879 94.0707H498.55V92.7977H505.955L505.236 93.241C505.248 92.613 505.117 92.0533 504.847 91.5588C504.577 91.0673 504.202 90.6865 503.722 90.4137C503.253 90.1324 502.705 89.9903 502.077 89.9903C501.46 89.9903 500.915 90.1324 500.434 90.4137C499.954 90.6865 499.576 91.073 499.306 91.5788C499.036 92.0703 498.9 92.6358 498.9 93.278V93.5734C498.9 94.2241 499.048 94.8095 499.343 95.3267C499.65 95.8325 500.076 96.2274 500.619 96.5087C501.159 96.7929 501.781 96.935 502.483 96.935C503.063 96.935 503.586 96.8355 504.054 96.6394C504.535 96.4405 504.952 96.1451 505.31 95.7529L506.288 96.8981C505.845 97.4152 505.29 97.8073 504.626 98.0801C503.972 98.35 503.242 98.4864 502.429 98.4864Z" fill="#285F74"/>
<path d="M339.11 29.6108V132.474" stroke="#285F74" stroke-width="0.568302"/>
<path d="M167.255 125.939V89.539H184.311C188.679 89.539 192.007 90.4057 194.295 92.1391C196.583 93.8383 197.727 96.1257 197.727 99.0013C197.727 100.945 197.276 102.607 196.375 103.994C195.474 105.346 194.26 106.403 192.735 107.165C191.244 107.895 189.615 108.259 187.847 108.259L188.783 106.386C190.828 106.386 192.666 106.767 194.295 107.532C195.924 108.259 197.207 109.333 198.143 110.754C199.114 112.175 199.599 113.945 199.599 116.059C199.599 119.179 198.403 121.605 196.011 123.339C193.619 125.072 190.066 125.939 185.351 125.939H167.255ZM174.015 120.634H184.935C187.466 120.634 189.407 120.219 190.759 119.386C192.111 118.554 192.787 117.218 192.787 115.383C192.787 113.578 192.111 112.263 190.759 111.43C189.407 110.563 187.466 110.131 184.935 110.131H173.495V104.878H183.583C185.94 104.878 187.743 104.463 188.991 103.63C190.274 102.798 190.915 101.55 190.915 99.885C190.915 98.1886 190.274 96.9213 188.991 96.0916C187.743 95.259 185.94 94.8413 183.583 94.8413H174.015V120.634ZM205.669 125.939V98.1716H211.857V105.815L211.129 103.579C211.961 101.706 213.261 100.286 215.029 99.3139C216.832 98.3449 219.068 97.859 221.737 97.859V104.045C221.46 103.977 221.2 103.943 220.957 103.943C220.715 103.909 220.472 103.892 220.229 103.892C217.768 103.892 215.809 104.619 214.353 106.074C212.897 107.495 212.169 109.629 212.169 112.47V125.939H205.669ZM241.86 125.939V120.321L241.496 119.125V109.299C241.496 107.392 240.922 105.918 239.78 104.878C238.635 103.803 236.901 103.266 234.58 103.266C233.02 103.266 231.477 103.508 229.951 103.994C228.459 104.48 227.195 105.156 226.155 106.023L223.606 101.292C225.098 100.146 226.865 99.2968 228.911 98.7427C230.991 98.1517 233.139 97.859 235.358 97.859C239.379 97.859 242.482 98.8279 244.667 100.772C246.886 102.678 247.995 105.642 247.995 109.663V125.939H241.86ZM233.122 126.303C231.042 126.303 229.223 125.956 227.663 125.263C226.104 124.535 224.89 123.546 224.024 122.299C223.191 121.014 222.775 119.577 222.775 117.983C222.775 116.423 223.139 115.019 223.867 113.771C224.629 112.521 225.859 111.535 227.558 110.805C229.258 110.078 231.511 109.714 234.318 109.714H242.38V114.03H234.787C232.568 114.03 231.076 114.394 230.315 115.121C229.553 115.814 229.169 116.681 229.169 117.721C229.169 118.9 229.638 119.838 230.576 120.531C231.511 121.225 232.809 121.571 234.475 121.571C236.069 121.571 237.489 121.205 238.74 120.477C240.021 119.75 240.939 118.676 241.496 117.255L242.587 121.154C241.962 122.785 240.837 124.049 239.206 124.95C237.612 125.851 235.583 126.303 233.122 126.303ZM264.396 126.303C262.074 126.303 259.838 126.007 257.69 125.419C255.573 124.794 253.893 124.049 252.646 123.183L255.141 118.241C256.388 119.04 257.88 119.699 259.613 120.219C261.347 120.739 263.08 120.997 264.813 120.997C266.859 120.997 268.331 120.722 269.232 120.165C270.17 119.611 270.636 118.866 270.636 117.931C270.636 117.167 270.326 116.596 269.701 116.215C269.076 115.797 268.263 115.485 267.257 115.277C266.251 115.07 265.126 114.88 263.876 114.706C262.662 114.533 261.432 114.309 260.185 114.03C258.971 113.718 257.863 113.286 256.857 112.731C255.851 112.14 255.036 111.362 254.413 110.39C253.788 109.418 253.476 108.137 253.476 106.543C253.476 104.775 253.979 103.249 254.985 101.965C255.991 100.649 257.394 99.6435 259.196 98.9502C261.034 98.2227 263.199 97.859 265.697 97.859C267.57 97.859 269.459 98.0664 271.366 98.4813C273.273 98.899 274.85 99.4872 276.097 100.252L273.599 105.19C272.284 104.392 270.948 103.855 269.596 103.579C268.28 103.266 266.962 103.11 265.646 103.11C263.668 103.11 262.196 103.406 261.225 103.994C260.29 104.585 259.821 105.329 259.821 106.23C259.821 107.063 260.133 107.685 260.756 108.103C261.381 108.518 262.196 108.847 263.199 109.091C264.205 109.333 265.316 109.54 266.53 109.714C267.777 109.853 269.007 110.078 270.221 110.39C271.434 110.703 272.542 111.135 273.548 111.691C274.588 112.211 275.421 112.956 276.046 113.925C276.668 114.897 276.981 116.161 276.981 117.721C276.981 119.455 276.461 120.963 275.421 122.245C274.415 123.529 272.977 124.535 271.104 125.263C269.232 125.956 266.996 126.303 264.396 126.303ZM282.059 125.939V98.1716H288.557V125.939H282.059ZM285.335 93.5939C284.121 93.5939 283.116 93.2131 282.317 92.4516C281.556 91.6872 281.175 90.7694 281.175 89.6953C281.175 88.5843 281.556 87.6665 282.317 86.9391C283.116 86.1747 284.121 85.7939 285.335 85.7939C286.548 85.7939 287.534 86.1577 288.298 86.8851C289.094 87.5784 289.495 88.4649 289.495 89.539C289.495 90.6813 289.114 91.6531 288.35 92.4516C287.588 93.2131 286.582 93.5939 285.335 93.5939ZM296.57 125.939V87.3539H303.069V125.939H296.57Z" fill="#285F74"/>
<path d="M177.754 72.4711C175.431 72.4711 173.282 72.0193 171.306 71.1185C169.364 70.2178 167.77 68.9163 166.522 67.2171L170.37 62.5911C171.375 63.9778 172.467 65.0178 173.646 65.7111C174.859 66.4044 176.176 66.7511 177.598 66.7511C181.376 66.7511 183.266 64.5148 183.266 60.0423V41.2173H170.318V35.5513H190.026V59.6786C190.026 63.9778 188.968 67.183 186.854 69.2971C184.774 71.414 181.74 72.4711 177.754 72.4711ZM192.558 71.9511L208.938 35.5513H215.594L232.025 71.9511H224.953L210.862 39.1373H213.566L199.526 71.9511H192.558ZM200.098 63.5259L201.918 58.2237H221.574L223.394 63.5259H200.098Z" fill="#285F74"/>
<path d="M129.083 0L112.965 32.4244L86.1025 32.5012L129.083 0Z" fill="#285F74"/>
<path d="M129.106 0L112.988 32.4244L129.113 53.8693L129.106 0Z" fill="#00A0AF"/>
<path d="M129.083 53.8696L112.965 86.297L86.1025 86.3737L129.083 53.8696Z" fill="#285F74"/>
<path d="M129.106 53.8696L112.988 86.297L129.113 107.742L129.106 53.8696Z" fill="#00A0AF"/>
<path d="M85.9761 32.501L69.8585 64.9283L42.9957 65.0022L85.9761 32.501Z" fill="#285F74"/>
<path d="M86.0001 32.501L69.8825 64.9283L86.0067 86.3732L86.0001 32.501Z" fill="#00A0AF"/>
<path d="M42.9816 65.0024L26.8631 97.4297L0 97.5036L42.9816 65.0024Z" fill="#285F74"/>
<path d="M43.0046 65.0024L26.887 97.4297L43.0112 118.875L43.0046 65.0024Z" fill="#00A0AF"/>
<path d="M85.9621 86.3745L69.8445 118.799L42.9803 118.876L85.9621 86.3745Z" fill="#285F74"/>
<path d="M85.9847 86.3745L69.8668 118.799L85.9909 140.244L85.9847 86.3745Z" fill="#00A0AF"/>
<path d="M129.067 107.742L112.95 140.167L86.0867 140.243L129.067 107.742Z" fill="#285F74"/>
<path d="M129.09 107.742L112.973 140.167L129.098 161.612L129.09 107.742Z" fill="#00A0AF"/>
</svg>
