<svg width="465" height="236" viewBox="0 0 465 236" fill="none" xmlns="http://www.w3.org/2000/svg">
<path d="M99.5615 153.019C93.8949 153.019 89.0046 154.96 85.7444 158.53V153.64H74.1785V195.402H86.2878V174.754C86.2878 167.069 90.4795 163.498 96.3013 163.498C101.657 163.498 104.762 166.603 104.762 173.356V195.402H116.872V171.493C116.872 158.763 109.42 153.019 99.5615 153.019Z" fill="white"/>
<path d="M144.693 153.019C138.017 153.019 131.264 154.804 126.684 158.064L131.031 166.525C134.058 164.119 138.638 162.644 143.062 162.644C149.583 162.644 152.688 165.672 152.688 170.872H143.062C130.332 170.872 125.131 175.996 125.131 183.37C125.131 190.589 130.953 196.023 140.734 196.023C146.866 196.023 151.213 194.004 153.464 190.201V195.402H164.797V171.571C164.797 158.918 157.423 153.019 144.693 153.019ZM143.761 187.872C139.492 187.872 136.93 185.854 136.93 182.827C136.93 180.032 138.715 177.936 144.382 177.936H152.688V182.206C151.291 186.009 147.797 187.872 143.761 187.872Z" fill="white"/>
<path d="M170.168 202.388H208.98V195.402H170.168V202.388Z" fill="white"/>
<path d="M236.728 184.845C235.408 185.854 233.623 186.397 231.838 186.397C228.577 186.397 226.637 184.457 226.637 180.886V163.886H237.038V154.571H226.637V144.403H214.527V154.571H208.085V163.886H214.527V181.041C214.527 190.977 220.272 196.023 230.13 196.023C233.856 196.023 237.504 195.169 239.988 193.383L236.728 184.845Z" fill="white"/>
<path d="M286.405 174.676C286.405 161.247 276.935 153.019 264.67 153.019C251.94 153.019 242.392 162.023 242.392 174.521C242.392 186.941 251.784 196.023 266.223 196.023C273.752 196.023 279.574 193.694 283.455 189.269L277.012 182.283C274.14 185 270.958 186.32 266.533 186.32C260.168 186.32 255.743 183.137 254.579 177.936H286.172C286.25 176.927 286.405 175.607 286.405 174.676ZM264.748 162.179C270.181 162.179 274.14 165.594 274.994 170.872H254.424C255.278 165.516 259.236 162.179 264.748 162.179Z" fill="white"/>
<path d="M314.649 196.023C323.42 196.023 330.329 192.141 333.356 185.466L323.964 180.343C321.713 184.379 318.375 186.087 314.571 186.087C308.439 186.087 303.626 181.817 303.626 174.521C303.626 167.224 308.439 162.955 314.571 162.955C318.375 162.955 321.713 164.74 323.964 168.699L333.356 163.653C330.329 156.823 323.42 153.019 314.649 153.019C301.065 153.019 291.362 161.946 291.362 174.521C291.362 187.096 301.065 196.023 314.649 196.023Z" fill="white"/>
<path d="M365.408 153.019C360.052 153.019 355.395 154.727 352.135 157.987V137.805H340.025V195.402H352.135V174.754C352.135 167.069 356.326 163.498 362.148 163.498C367.504 163.498 370.609 166.603 370.609 173.356V195.402H382.718V171.493C382.718 158.763 375.267 153.019 365.408 153.019Z" fill="white"/>
<path d="M116.216 48.5402H157.417V72.203H116.216V48.5402ZM116.216 85.0087H164.933V109.785H83.9232V12.3501H163.124V37.1264H116.216V85.0087Z" fill="#00A0AF"/>
<path d="M176.605 109.785V6.50401H208.062V109.785H176.605Z" fill="#00A0AF"/>
<path d="M268.078 109.785V96.2833L267.623 92.0244L265.851 89.1351V67.0528C266.075 61.2735 264.691 60.5108 262.372 58.5621C260.145 56.6134 256.479 55.639 251.375 55.639C247.942 55.639 244.462 56.1958 240.936 57.3094C237.41 58.3301 234.394 59.7684 231.888 61.6243L221.867 40.8846C226.321 38.1008 231.656 35.9665 237.874 34.4818C244.091 32.997 250.169 32.2547 256.108 32.2547C269.192 32.2547 279.307 35.1777 286.452 41.0238C293.69 46.8699 297.309 56.1494 297.309 68.8624V109.785H268.078ZM246.504 111.177C240.286 111.177 235.09 110.11 230.914 107.976C226.738 105.841 223.583 103.011 221.449 99.4847C219.315 95.8657 218.247 91.8755 218.247 87.5142C218.247 82.596 219.5 78.4202 222.006 74.9868C224.511 71.5534 228.316 68.9551 233.419 67.192C238.616 65.4289 245.158 64.5474 253.046 64.5474H265.851V79.7194H258.057C254.716 79.7194 252.257 80.2762 250.679 81.3897C249.195 82.4104 248.452 83.988 248.452 86.1223C248.452 87.8854 249.102 89.3701 250.401 90.5764C251.793 91.69 253.649 92.2467 255.969 92.2467C258.103 92.2467 260.052 91.69 261.815 90.5764C263.671 89.3701 265.016 87.5142 265.851 85.0087V89.1351L267.623 92.0244L268.078 96.2833V99.2994C267.262 102.602 266.13 104.217 262.232 107.001C258.335 109.785 253.092 111.177 246.504 111.177Z" fill="#00A0AF"/>
<path d="M340.691 111.177C334.196 111.177 327.793 110.481 321.483 109.089C315.173 107.697 310.069 105.888 306.172 103.661L314.802 82.9208C318.421 85.0551 322.596 86.7254 327.329 87.9318C332.154 89.1381 336.84 89.7413 341.387 89.7413C345.192 89.7413 347.744 89.4165 349.043 88.7669C350.435 88.1173 351.131 87.2358 351.131 86.1223C351.131 85.0087 350.342 84.2199 348.765 83.756C347.187 83.1992 345.099 82.7816 342.501 82.5032C339.903 82.2249 337.026 81.9001 333.871 81.5289C330.809 81.0649 327.7 80.4153 324.545 79.5802C321.39 78.745 318.513 77.4923 315.915 75.822C313.317 74.1517 311.229 71.9246 309.651 69.1407C308.074 66.2641 307.285 62.6451 307.285 58.2837C307.285 53.4584 308.723 49.097 311.6 45.1996C314.57 41.3022 318.931 38.1936 324.684 35.8737C330.53 33.461 337.722 32.2547 346.259 32.2547C351.827 32.2547 357.395 32.765 362.962 33.7858C368.53 34.8065 373.309 36.3841 377.299 38.5183L368.669 59.2581C364.772 57.1238 360.921 55.6854 357.116 54.9431C353.404 54.1079 349.924 53.6903 346.677 53.6903C342.686 53.6903 339.949 54.0615 338.464 54.8039C337.072 55.5462 336.376 56.3814 336.376 57.3094C336.376 58.4229 337.165 59.2581 338.743 59.8148C340.32 60.3716 342.408 60.7892 345.006 61.0676C347.605 61.3459 350.435 61.7171 353.497 62.1811C356.652 62.5523 359.761 63.2018 362.823 64.1298C365.978 64.965 368.855 66.2177 371.453 67.888C374.051 69.5583 376.139 71.8318 377.717 74.7084C379.294 77.4923 380.083 81.0649 380.083 85.4263C380.083 89.9732 378.645 94.2418 375.768 98.232C372.891 102.129 368.53 105.284 362.684 107.697C356.838 110.017 349.507 111.177 340.691 111.177Z" fill="#00A0AF"/>
<path d="M35.4875 235.29H0L0 0.0106127H35.4875V15.9866H20.4282V219.314H35.4875V235.29Z" fill="white"/>
<path d="M464.592 0V235.28H429.235V219.304H444.164V15.9759H429.235V0H464.592Z" fill="white"/>
</svg>
